<svg width="24" height="24" viewBox="0 0 24 24" fill="none" xmlns="http://www.w3.org/2000/svg">
<rect x="6" y="10" width="12" height="5" fill="white"/>
<path fill-rule="evenodd" clip-rule="evenodd" d="M11.9989 22.0002C7.28486 22.0002 4.92783 22.0002 3.46337 20.5358C1.9989 19.0713 1.9989 16.7143 1.9989 12.0002C1.9989 7.2862 1.9989 4.92918 3.46337 3.46471C4.92783 2.00024 7.28486 2.00024 11.9989 2.00024C16.7129 2.00024 19.07 2.00024 20.5344 3.46471C21.9989 4.92918 21.9989 7.2862 21.9989 12.0002C21.9989 16.7143 21.9989 19.0713 20.5344 20.5358C19.07 22.0002 16.7129 22.0002 11.9989 22.0002ZM15.7489 12.0002C15.7489 12.4145 15.4131 12.7502 14.9989 12.7502H8.9989C8.58469 12.7502 8.2489 12.4145 8.2489 12.0002C8.2489 11.586 8.58469 11.2502 8.9989 11.2502H14.9989C15.4131 11.2502 15.7489 11.586 15.7489 12.0002Z" fill="#212121"/>
</svg>
